# xmcd CD database file
#
# Track frame offsets:
#	150
#	16747
#	28000
#	42095
#	55930
#	74725
#	93612
#	110297
#	122262
#	137102
#	150122
#	173795
#	185480
#	204942
#	218290
#
# Disc length: 3256 seconds
#
# Revision: 0
# Processed by: cddbd v1.4PL0 Copyright (c) Steve Scherf et al.
# Submitted via: CDex 1.40Release
#
DISCID=bc0cb60f
DTITLE=Durazno de Gala - Noche de Blues
DYEAR=1993
DGENRE=Blues
TTITLE0=Blues del Politico
TTITLE1=Heads Up
TTITLE2=No Beberemos tu Champagne
TTITLE3=Se Corre la Voz
TTITLE4=Amandote Lentamente
TTITLE5=Sola Contra el Mundo
TTITLE6=Buscando tu Jardin
TTITLE7=Hideaway
TTITLE8=No Me Sirves
TTITLE9=Superman a Go-Go
TTITLE10=Blues Superpodrido
TTITLE11=Rumbita
TTITLE12=I Ain't Superstitious
TTITLE13=She is a Good Un
TTITLE14=Improvisacion
EXTD=YEAR: 1993 ID3G: 0
EXTT0=
EXTT1=
EXTT2=
EXTT3=
EXTT4=
EXTT5=
EXTT6=
EXTT7=
EXTT8=
EXTT9=
EXTT10=
EXTT11=
EXTT12=
EXTT13=
EXTT14=
PLAYORDER=
